<svg width="32" height="33" viewBox="0 0 32 33" fill="none" xmlns="http://www.w3.org/2000/svg">
<path d="M17.9694 0C9.46479 0 0 10.6797 0 18.812C0 26.9443 8.23025 32.0196 16.7348 32.0196C25.2394 32.0196 32 27.2382 32 19.1255C32 11.0129 26.474 0 17.9694 0ZM20.752 23.2603C21.1243 23.6326 21.1243 24.2597 20.752 24.632C20.3797 25.0043 19.7526 25.0043 19.3803 24.632L11.4636 16.7348C11.0912 16.3625 11.0912 15.7355 11.4636 15.3631L19.3607 7.46602C19.733 7.0937 20.3601 7.0937 20.7324 7.46602C21.1047 7.83834 21.1047 8.4654 20.7324 8.83772L13.5407 16.049L20.752 23.2603Z" fill="#404040"/>
</svg>
