<svg width="24" height="24" viewBox="0 0 24 24" fill="currentColor" 
  xmlns="http://www.w3.org/2000/svg">
  <g clip-path="url(#clip0)">
    <path fill-rule="evenodd" clip-rule="evenodd" d="M18.364 7.05024C18.7545 6.65971 18.7545 6.02655 18.364 5.63603C17.9734 5.2455 17.3403 5.2455 16.9497 5.63603L12 10.5858L7.05025 5.63603C6.65973 5.2455 6.02656 5.2455 5.63604 5.63603C5.24551 6.02655 5.24552 6.65971 5.63604 7.05024L10.5858 12L5.63604 16.9497C5.24551 17.3403 5.24551 17.9734 5.63604 18.3639C6.02656 18.7545 6.65973 18.7545 7.05025 18.3639L12 13.4142L16.9497 18.3639C17.3403 18.7545 17.9734 18.7545 18.364 18.3639C18.7545 17.9734 18.7545 17.3403 18.364 16.9497L13.4142 12L18.364 7.05024Z" fill="currentColor"/>
  </g>
  <defs>
    <clipPath id="clip0">
      <path d="M0 0H24V24H0V0Z" fill="white"/>
    </clipPath>
  </defs>
</svg>
