<svg viewBox="0 0 46 46" fill="none" 
  xmlns="http://www.w3.org/2000/svg">
  <path d="M25.8298 1.63026C13.8429 1.63026 0.470703 16.0594 0.470703 27.0036C0.470703 37.9767 12.0961 44.8312 24.0829 44.8312C36.0698 44.8312 45.6472 38.3799 45.6472 27.4068C45.6472 16.4626 37.8166 1.63026 25.8298 1.63026ZM30.2872 14.8785C30.2872 15.1666 30.0462 15.397 29.7451 15.397H27.3959C25.7695 15.397 25.4985 16.0018 25.4985 17.1826V19.6307H29.5945C29.7451 19.6307 29.8655 19.6883 29.986 19.7747C30.1065 19.8611 30.1366 20.0051 30.1366 20.1491V24.354C30.1366 24.642 29.8956 24.8724 29.5945 24.8724H25.4985V35.4998C25.4985 35.7878 25.2575 36.0182 24.9564 36.0182H20.4086C20.1074 36.0182 19.8665 35.7878 19.8665 35.4998V24.9012H16.3728C16.0716 24.9012 15.8307 24.6708 15.8307 24.3828V20.1491C15.8307 19.8611 16.0716 19.6307 16.3728 19.6307H19.8665V16.7218C19.8665 12.8913 22.3963 10.4144 26.2815 10.4144H29.7451C30.0462 10.4144 30.2872 10.6449 30.2872 10.9329V14.8785Z" fill="#C3C3C3"/>
</svg>
