<svg viewBox="0 0 46 46" fill="none" 
  xmlns="http://www.w3.org/2000/svg">
  <path fill-rule="evenodd" clip-rule="evenodd" d="M0.412109 27.0036C0.412109 16.0594 13.7843 1.63026 25.7712 1.63026C37.758 1.63026 45.5886 16.4626 45.5886 27.4068C45.5886 38.3799 36.0112 44.8312 24.0243 44.8312C12.0375 44.8312 0.412109 37.9767 0.412109 27.0036ZM35.3185 31.3813C35.6498 30.5749 35.8606 29.6821 35.9208 28.3572C35.9246 28.275 35.9282 28.1962 35.9317 28.1199C35.9847 26.9675 36.0112 26.3912 36.0112 23.2307C36.0112 19.8611 36.0112 19.429 35.9509 18.1042C35.8907 16.7794 35.6799 15.8578 35.3486 15.0802C35.0173 14.2449 34.5053 13.4961 33.8427 12.8625C33.2102 12.2289 32.4272 11.7393 31.5538 11.4225C30.7105 11.1057 29.7768 10.9041 28.3914 10.8465C28.3054 10.8429 28.223 10.8394 28.1432 10.8361C26.9381 10.7854 26.3355 10.7601 23.0305 10.7601C19.7255 10.7601 19.1229 10.7854 17.9177 10.8361C17.8379 10.8394 17.7555 10.8429 17.6695 10.8465C16.2841 10.9041 15.3203 11.1057 14.5072 11.4225C13.6338 11.7393 12.8507 12.2289 12.1881 12.8625C11.5255 13.4673 11.0135 14.2161 10.6822 15.0514C10.3509 15.8578 10.1401 16.7506 10.0799 18.0754C10.0761 18.1577 10.0725 18.2365 10.069 18.3127C10.016 19.4652 9.98952 20.0414 9.98952 23.2019C9.98952 26.3624 10.016 26.9387 10.069 28.0911C10.0725 28.1674 10.0761 28.2462 10.0799 28.3284C10.1401 29.6533 10.3509 30.5749 10.6822 31.3525C11.0135 32.1877 11.5255 32.9365 12.1881 33.5702C12.8206 34.2038 13.6036 34.6934 14.477 35.0102C15.3203 35.327 16.254 35.5286 17.6394 35.5862C17.7254 35.5898 17.8078 35.5932 17.8876 35.5966C19.0927 35.6473 19.6953 35.6726 23.0003 35.6726C26.3054 35.6726 26.9079 35.6473 28.1131 35.5966C28.1929 35.5932 28.2753 35.5898 28.3613 35.5862C29.7467 35.5286 30.7105 35.327 31.5236 35.0102C33.2705 34.3766 34.6559 33.0517 35.3185 31.3813ZM33.1499 15.9153C32.9391 15.3681 32.6078 14.8784 32.1862 14.4752C31.7645 14.072 31.2525 13.7552 30.6803 13.5536C30.2285 13.3808 29.5358 13.1792 28.2709 13.1216L28.0113 13.1105C26.8459 13.0603 26.2632 13.0352 23.0304 13.0352C19.7976 13.0352 19.2149 13.0603 18.0495 13.1105L17.7899 13.1216C16.525 13.1792 15.8323 13.3808 15.3805 13.5536C14.8083 13.7552 14.2963 14.072 13.8746 14.4752C13.4229 14.8784 13.1217 15.3681 12.9109 15.9153C12.7302 16.3473 12.5193 17.0097 12.4591 18.2193L12.4475 18.4675V18.4676C12.395 19.582 12.3688 20.1392 12.3688 23.2306C12.3688 26.3221 12.395 26.8793 12.4475 27.9937L12.4475 27.9937L12.4591 28.242C12.5193 29.4516 12.7302 30.114 12.9109 30.546C13.1217 31.0932 13.453 31.5828 13.8746 31.9861C14.2963 32.3893 14.8083 32.7061 15.3805 32.9077C15.8323 33.0805 16.525 33.2821 17.7899 33.3397L18.0495 33.3508C19.2149 33.401 19.7976 33.4261 23.0304 33.4261C26.2632 33.4261 26.8459 33.401 28.0113 33.3508L28.2709 33.3397C29.5358 33.2821 30.2285 33.0805 30.6803 32.9077C31.8248 32.4757 32.6982 31.6404 33.1499 30.546C33.3306 30.114 33.5415 29.4516 33.6017 28.242L33.6151 27.9508C33.6664 26.842 33.6921 26.2875 33.6921 23.2306C33.6921 20.1393 33.6658 19.582 33.6133 18.4676L33.6017 18.2193C33.5415 17.0097 33.3306 16.3473 33.1499 15.9153ZM23.0003 29.6244C19.3259 29.6244 16.3142 26.7731 16.3142 23.2306C16.3142 19.6882 19.3259 16.8369 23.0003 16.8369C26.6746 16.8369 29.6864 19.6882 29.6864 23.2306C29.6864 26.7731 26.7048 29.6244 23.0003 29.6244ZM29.9575 18.0753C29.084 18.0753 28.3913 17.4129 28.3913 16.5777C28.3913 15.7425 29.084 15.08 29.9575 15.08C30.8309 15.08 31.5236 15.7425 31.5236 16.5777C31.5236 17.4129 30.8008 18.0753 29.9575 18.0753ZM27.0093 24.8238C27.9259 22.7076 26.8751 20.2815 24.6621 19.4049C22.4492 18.5284 19.9121 19.5333 18.9955 21.6495C18.0788 23.7657 19.1297 26.1918 21.3426 27.0684C23.5556 27.9449 26.0926 26.94 27.0093 24.8238Z" fill="#C3C3C3"/>
</svg>
