<svg width="153" height="32" viewBox="0 0 153 32" fill="none" xmlns="http://www.w3.org/2000/svg">
<mask id="mask0" mask-type="alpha" maskUnits="userSpaceOnUse" x="0" y="0" width="32" height="32">
<path d="M31.3338 0.250977H0.242188V31.749H31.3338V0.250977Z" fill="white"/>
</mask>
<g mask="url(#mask0)">
<mask id="mask1" mask-type="alpha" maskUnits="userSpaceOnUse" x="0" y="0" width="32" height="32">
<path d="M9.78025 0.250977C9.40864 0.250977 9.1609 0.250977 8.91316 0.250977C8.54154 0.250977 8.2938 0.250977 7.92219 0.250977C7.17896 0.250977 6.55961 0.250977 5.81638 0.376467C5.19703 0.501957 4.57767 0.752937 3.95832 1.12941C3.33896 1.38039 2.71961 1.75686 2.22412 2.25882C1.72864 2.76078 1.35703 3.26274 0.985413 3.89019C0.6138 4.51764 0.489929 5.1451 0.366058 5.89804C0.242188 6.65098 0.242188 7.27843 0.242188 8.03137C0.242188 8.40784 0.242188 8.65882 0.242188 9.03529C0.242188 9.28627 0.242188 9.66274 0.242188 9.91372V10.0392V21.8353V22.0863C0.242188 22.3373 0.242188 22.7137 0.242188 22.9647C0.242188 23.3412 0.242188 23.5922 0.242188 23.9686C0.242188 24.7216 0.242188 25.349 0.366058 26.102C0.489929 26.8549 0.737671 27.4824 0.985413 28.1098C1.35703 28.7373 1.72864 29.2392 2.22412 29.7412C2.71961 30.2431 3.21509 30.6196 3.83445 30.9961C4.4538 31.3726 5.07316 31.498 5.81638 31.6235C6.43574 31.749 7.17896 31.749 7.92219 31.749C8.2938 31.749 8.54154 31.749 8.91316 31.749C9.28477 31.749 9.53251 31.749 9.78025 31.749H10.028H21.6719H21.9196C22.2912 31.749 22.539 31.749 22.7867 31.749C23.1583 31.749 23.4061 31.749 23.7777 31.749C24.5209 31.749 25.1403 31.749 25.8835 31.6235C26.6267 31.498 27.2461 31.2471 27.8654 30.9961C28.4848 30.6196 28.9803 30.2431 29.4757 29.7412C29.9712 29.2392 30.3428 28.7373 30.7144 28.1098C31.0861 27.4824 31.2099 26.8549 31.3338 26.102C31.4577 25.4745 31.4577 24.7216 31.4577 23.9686C31.4577 23.5922 31.4577 23.3412 31.4577 22.9647C31.4577 22.7137 31.4577 22.3373 31.4577 22.0863V9.91372C31.4577 9.66274 31.4577 9.28627 31.4577 9.03529C31.4577 8.65882 31.4577 8.40784 31.4577 8.03137C31.4577 7.27843 31.4577 6.65098 31.3338 5.89804C31.2099 5.1451 30.9622 4.51764 30.7144 3.89019C30.3428 3.26274 29.9712 2.76078 29.4757 2.25882C28.9803 1.75686 28.4848 1.38039 27.8654 1.00392C27.2461 0.627447 26.6267 0.501957 25.8835 0.376467C25.2641 0.250977 24.5209 0.250977 23.7777 0.250977C23.4061 0.250977 23.1583 0.250977 22.7867 0.250977C22.4151 0.250977 22.1673 0.250977 21.9196 0.250977H9.78025Z" fill="white"/>
</mask>
<g mask="url(#mask1)">
<path d="M31.3338 0.250977H0.242188V31.749H31.3338V0.250977Z" fill="url(#paint0_linear)"/>
</g>
</g>
<path d="M38.5156 8.78423C38.5156 8.03129 39.135 7.40384 39.8782 7.40384C40.6214 7.40384 41.1169 8.03129 41.1169 8.78423C41.1169 9.41168 40.6214 10.0391 39.8782 10.0391C39.135 10.0391 38.5156 9.41168 38.5156 8.78423ZM38.6395 11.6705H40.993V23.0901H38.6395V11.6705ZM47.0627 23.0901V9.53717H42.3556V7.52933H54.1234V9.66266H49.4163V23.2156L47.0627 23.0901ZM63.7853 23.0901H61.5556V21.0823C60.9363 22.4627 59.8214 23.2156 58.0872 23.2156C55.6098 23.2156 54.1234 21.5842 54.1234 19.0744V11.6705H56.4769V18.447C56.4769 20.2038 57.344 21.0823 58.8305 21.0823C60.4408 21.0823 61.5556 19.9529 61.5556 18.196V11.6705H63.9092L63.7853 23.0901ZM66.1388 11.6705H68.3685V13.5529C68.9879 12.1725 70.2266 11.545 71.8369 11.545C74.3143 11.545 75.6769 13.1764 75.6769 15.8117V23.0901H73.3234V16.3136C73.3234 14.5568 72.5801 13.6784 70.9698 13.6784C69.3595 13.6784 68.3685 14.8078 68.3685 16.5646V23.0901H66.015L66.1388 11.6705ZM87.5685 19.7019C87.1969 21.7097 85.215 23.2156 82.7376 23.2156C79.5169 23.2156 77.4111 20.9568 77.4111 17.4431C77.4111 13.9293 79.393 11.545 82.6137 11.545C85.7105 11.545 87.6924 13.6784 87.6924 17.1921V17.945H79.7646V18.0705C79.7646 19.9529 81.0034 21.3333 82.7376 21.3333C83.9763 21.3333 84.9672 20.7058 85.3388 19.7019H87.5685ZM79.7646 16.3136H85.3388C85.3388 14.5568 84.224 13.4274 82.6137 13.4274C81.1272 13.4274 79.8885 14.6823 79.7646 16.3136ZM93.6382 11.545C96.1156 11.545 97.8498 12.9254 97.9737 14.9333H95.8679C95.744 13.9293 94.8769 13.3019 93.6382 13.3019C92.3995 13.3019 91.5324 13.9293 91.5324 14.8078C91.5324 15.4352 92.0279 15.9372 93.2666 16.1882L95.1246 16.6901C97.3543 17.1921 98.2214 18.0705 98.2214 19.7019C98.2214 21.7097 96.3634 23.2156 93.5143 23.2156C90.913 23.2156 89.055 21.8352 88.9311 19.8274H91.1608C91.2847 20.9568 92.1517 21.4587 93.6382 21.4587C95.0008 21.4587 95.8679 20.8313 95.8679 19.9529C95.8679 19.1999 95.4963 18.8235 94.2576 18.5725L92.2756 18.0705C90.2937 17.5685 89.1788 16.5646 89.1788 14.9333C89.3027 12.9254 91.0369 11.545 93.6382 11.545ZM106.397 18.698C106.521 20.2038 108.007 21.2078 110.113 21.2078C112.095 21.2078 113.458 20.2038 113.458 18.8235C113.458 17.5685 112.59 16.9411 110.609 16.4391L108.627 15.9372C105.778 15.1842 104.539 13.9293 104.539 11.796C104.539 9.1607 106.892 7.27835 110.113 7.27835C113.334 7.27835 115.563 9.1607 115.687 11.796H113.334C113.21 10.2901 111.971 9.28619 110.113 9.28619C108.255 9.28619 107.016 10.2901 107.016 11.6705C107.016 12.7999 107.883 13.4274 109.865 13.9293L111.599 14.3058C114.696 15.0587 116.059 16.3136 116.059 18.5725C116.059 21.4587 113.705 23.3411 110.113 23.3411C106.645 23.3411 104.415 21.5842 104.291 18.698H106.397ZM120.766 9.03521V11.6705H122.872V13.5529H120.766V19.8274C120.766 20.8313 121.138 21.2078 122.129 21.2078C122.376 21.2078 122.748 21.2078 122.872 21.2078V23.0901C122.624 23.2156 122.129 23.2156 121.633 23.2156C119.403 23.2156 118.536 22.3372 118.536 20.2038V13.6784H116.926V11.6705H118.536V9.03521H120.766ZM123.739 17.4431C123.739 13.9293 125.845 11.6705 129.065 11.6705C132.286 11.6705 134.392 13.9293 134.392 17.4431C134.392 21.0823 132.286 23.2156 129.065 23.2156C125.845 23.2156 123.739 20.9568 123.739 17.4431ZM132.038 17.4431C132.038 14.9333 130.923 13.5529 129.065 13.5529C127.207 13.5529 126.092 15.0587 126.092 17.4431C126.092 19.9529 127.207 21.3333 129.065 21.3333C130.923 21.3333 132.038 19.8274 132.038 17.4431ZM136.25 11.6705H138.479V13.5529C138.851 12.298 139.842 11.545 141.205 11.545C141.576 11.545 141.824 11.545 141.948 11.6705V13.8038C141.824 13.6784 141.329 13.6784 140.957 13.6784C139.47 13.6784 138.603 14.6823 138.603 16.3136V23.0901H136.25V11.6705ZM152.477 19.7019C152.105 21.7097 150.123 23.2156 147.646 23.2156C144.425 23.2156 142.319 20.9568 142.319 17.4431C142.319 13.9293 144.301 11.545 147.522 11.545C150.619 11.545 152.601 13.6784 152.601 17.1921V17.945H144.673V18.0705C144.673 19.9529 145.912 21.3333 147.646 21.3333C148.885 21.3333 149.876 20.7058 150.247 19.7019H152.477ZM144.673 16.3136H150.247C150.247 14.5568 149.132 13.4274 147.522 13.4274C146.036 13.4274 144.797 14.6823 144.673 16.3136Z" fill="black"/>
<mask id="mask2" mask-type="alpha" maskUnits="userSpaceOnUse" x="0" y="0" width="32" height="32">
<path d="M31.3338 0.250977H0.242188V31.749H31.3338V0.250977Z" fill="white"/>
</mask>
<g mask="url(#mask2)">
<mask id="mask3" mask-type="alpha" maskUnits="userSpaceOnUse" x="15" y="18" width="9" height="9">
<path d="M15.7266 21.584L21.1769 25.5997C21.4247 25.8507 21.7963 25.9762 22.044 26.2272C22.1679 26.2272 22.2918 26.3527 22.4156 26.3527C22.5395 26.3527 22.5395 26.3527 22.6634 26.3527C22.7872 26.3527 22.7872 26.3527 22.9111 26.3527L23.035 26.2272C23.035 26.1017 23.035 26.1017 23.035 25.9762C23.035 25.8507 23.035 25.7252 23.035 25.5997C22.9111 25.2233 22.7872 24.8468 22.6634 24.4703L20.5576 18.0703L15.7266 21.584Z" fill="white"/>
</mask>
<g mask="url(#mask3)">
<path d="M23.035 18.0703H15.7266V26.4782H23.035V18.0703Z" fill="url(#paint1_radial)"/>
</g>
</g>
<mask id="mask4" mask-type="alpha" maskUnits="userSpaceOnUse" x="0" y="0" width="32" height="32">
<path d="M31.3338 0.250977H0.242188V31.749H31.3338V0.250977Z" fill="white"/>
</mask>
<g mask="url(#mask4)">
<mask id="mask5" mask-type="alpha" maskUnits="userSpaceOnUse" x="4" y="12" width="9" height="7">
<path d="M6.069 12.2979C5.69739 12.2979 5.32577 12.2979 4.95416 12.2979C4.83029 12.2979 4.70642 12.2979 4.58255 12.4233C4.45868 12.4233 4.45868 12.5488 4.33481 12.5488L4.21094 12.6743C4.21094 12.6743 4.21094 12.7998 4.21094 12.9253C4.21094 13.0508 4.21094 13.0508 4.33481 13.1763C4.45868 13.3018 4.45868 13.3018 4.58255 13.4273C4.95416 13.5527 5.2019 13.8037 5.44965 14.0547L10.9 18.0704L12.758 12.2979H6.069Z" fill="white"/>
</mask>
<g mask="url(#mask5)">
<path d="M12.758 12.2979H4.21094V18.0704H12.758V12.2979Z" fill="url(#paint2_radial)"/>
</g>
</g>
<mask id="mask6" mask-type="alpha" maskUnits="userSpaceOnUse" x="0" y="0" width="32" height="32">
<path d="M31.3338 0.250977H0.242188V31.749H31.3338V0.250977Z" fill="white"/>
</mask>
<g mask="url(#mask6)">
<mask id="mask7" mask-type="alpha" maskUnits="userSpaceOnUse" x="8" y="18" width="8" height="9">
<path d="M8.79462 24.4703C8.79462 24.8468 8.67075 25.2233 8.54688 25.5997C8.54688 25.7252 8.54688 25.8507 8.54688 25.9762C8.54688 26.1017 8.54688 26.1017 8.54688 26.2272L8.67075 26.3527C8.67075 26.3527 8.79462 26.3527 8.79462 26.4782C8.91849 26.4782 8.91849 26.4782 9.04236 26.4782C9.16623 26.4782 9.2901 26.3527 9.41397 26.3527C9.66171 26.1017 10.0333 25.9762 10.2811 25.7252L15.7314 21.7095L12.7585 19.3252L11.0243 18.0703L8.79462 24.4703Z" fill="white"/>
</mask>
<g mask="url(#mask7)">
<path d="M15.8553 18.0703H8.54688V26.4782H15.8553V18.0703Z" fill="url(#paint3_radial)"/>
</g>
</g>
<mask id="mask8" mask-type="alpha" maskUnits="userSpaceOnUse" x="0" y="0" width="32" height="32">
<path d="M31.3338 0.250977H0.242188V31.749H31.3338V0.250977Z" fill="white"/>
</mask>
<g mask="url(#mask8)">
<mask id="mask9" mask-type="alpha" maskUnits="userSpaceOnUse" x="18" y="12" width="10" height="7">
<path d="M18.7031 12.2979L20.5612 18.0704L26.0115 14.0547C26.3832 13.8037 26.6309 13.5527 26.8786 13.3018C27.0025 13.1763 27.0025 13.1763 27.1264 13.0508C27.1264 12.9253 27.2503 12.9253 27.2503 12.7998C27.2503 12.6743 27.2503 12.6743 27.2503 12.5488C27.2503 12.5488 27.2503 12.4233 27.1264 12.4233C27.1264 12.4233 27.0025 12.2979 26.8786 12.2979C26.7548 12.2979 26.6309 12.2979 26.507 12.2979C26.1354 12.2979 25.7638 12.2979 25.3922 12.2979H18.7031Z" fill="white"/>
</mask>
<g mask="url(#mask9)">
<path d="M27.2503 12.2979H18.7031V18.0704H27.2503V12.2979Z" fill="url(#paint4_radial)"/>
</g>
</g>
<mask id="mask10" mask-type="alpha" maskUnits="userSpaceOnUse" x="0" y="0" width="32" height="32">
<path d="M31.3338 0.250977H0.242188V31.749H31.3338V0.250977Z" fill="white"/>
</mask>
<g mask="url(#mask10)">
<path d="M12.7565 12.2979L10.8984 18.0704L12.7565 19.3253L15.7294 21.5841L20.5603 18.0704L18.7023 12.2979H12.7565Z" fill="white"/>
</g>
<mask id="mask11" mask-type="alpha" maskUnits="userSpaceOnUse" x="0" y="0" width="32" height="32">
<path d="M31.3338 0.250977H0.242188V31.749H31.3338V0.250977Z" fill="white"/>
</mask>
<g mask="url(#mask11)">
<mask id="mask12" mask-type="alpha" maskUnits="userSpaceOnUse" x="12" y="4" width="7" height="9">
<path d="M15.6068 4.26671C15.483 4.26671 15.483 4.3922 15.483 4.3922C15.3591 4.51769 15.2352 4.64318 15.2352 4.76867C15.1114 5.14514 14.9875 5.39612 14.8636 5.77259L12.7578 12.2981H18.8275L16.7217 5.77259C16.5978 5.39612 16.4739 5.14514 16.3501 4.76867C16.3501 4.64318 16.2262 4.51769 16.2262 4.3922C16.2262 4.26671 16.1023 4.26671 16.1023 4.26671C16.1023 4.26671 15.9784 4.26671 15.8546 4.26671C15.7307 4.26671 15.6068 4.14122 15.6068 4.26671Z" fill="white"/>
</mask>
<g mask="url(#mask12)">
<path d="M18.7036 4.14157H12.7578V12.173H18.7036V4.14157Z" fill="url(#paint5_radial)"/>
</g>
</g>
<defs>
<linearGradient id="paint0_linear" x1="15.7753" y1="0.224847" x2="15.7753" y2="31.759" gradientUnits="userSpaceOnUse">
<stop stop-color="#EF4DB7"/>
<stop offset="1" stop-color="#C643FD"/>
</linearGradient>
<radialGradient id="paint1_radial" cx="0" cy="0" r="1" gradientUnits="userSpaceOnUse" gradientTransform="translate(0.905 21.5844) scale(0.0322754 0.0326971)">
<stop stop-color="#F9E3FB"/>
<stop offset="0.7459" stop-color="#F9E3FB"/>
<stop offset="0.8097" stop-color="#F8DEFB"/>
<stop offset="0.8826" stop-color="#F3D0FA"/>
<stop offset="0.9599" stop-color="#ECBAF9"/>
<stop offset="0.981" stop-color="#EAB2F9"/>
<stop offset="1" stop-color="#EAB2F9"/>
</radialGradient>
<radialGradient id="paint2_radial" cx="0" cy="0" r="1" gradientUnits="userSpaceOnUse" gradientTransform="translate(-10.5999 0.192447) scale(0.0325254 0.0329505)">
<stop stop-color="#FAE1F8"/>
<stop offset="0.6" stop-color="#FAE1F8"/>
<stop offset="0.85" stop-color="#F7D6F7"/>
<stop offset="1" stop-color="#F7D6F7"/>
</radialGradient>
<radialGradient id="paint3_radial" cx="0" cy="0" r="1" gradientUnits="userSpaceOnUse" gradientTransform="translate(24.8107 33.7397) scale(0.0322752 0.0326971)">
<stop stop-color="#FAE9FC"/>
<stop offset="0.669" stop-color="#FAE9FC"/>
<stop offset="0.8118" stop-color="#F8DEFA"/>
<stop offset="0.91" stop-color="#F6D4F8"/>
<stop offset="1" stop-color="#F6D4F8"/>
</radialGradient>
<radialGradient id="paint4_radial" cx="0" cy="0" r="1" gradientUnits="userSpaceOnUse" gradientTransform="translate(24.8077 33.7385) scale(0.0325255 0.0329505)">
<stop stop-color="#FAE9FB"/>
<stop offset="0.68" stop-color="#FAE9FB"/>
<stop offset="0.8132" stop-color="#F8DEF8"/>
<stop offset="0.98" stop-color="#F5CAF2"/>
<stop offset="1" stop-color="#F5CAF2"/>
</radialGradient>
<radialGradient id="paint5_radial" cx="0" cy="0" r="1" gradientUnits="userSpaceOnUse" gradientTransform="translate(0.908866 21.5837) scale(0.0324323 0.0328565)">
<stop stop-color="#FBE3F8"/>
<stop offset="0.745" stop-color="#FBE3F8"/>
<stop offset="0.8082" stop-color="#FADEF6"/>
<stop offset="0.8798" stop-color="#F9D1F0"/>
<stop offset="0.9554" stop-color="#F6BAE7"/>
<stop offset="0.98" stop-color="#F5B1E3"/>
<stop offset="1" stop-color="#F5B1E3"/>
</radialGradient>
</defs>
</svg>
