<svg viewBox="0 0 12 64" fill="none" xmlns="http://www.w3.org/2000/svg">
<path d="M4.81543 48.8742C4.81543 49.4305 5.28143 49.9073 5.8251 49.9073C6.36877 49.9073 6.83478 49.4305 6.83478 48.8742C6.83478 48.3179 6.36877 47.8411 5.8251 47.8411C5.28143 47.7616 4.81543 48.2384 4.81543 48.8742Z" fill="#999999"/>
<path d="M5.8251 32.8212C6.38273 32.8212 6.83478 32.3586 6.83478 31.7881C6.83478 31.2175 6.38273 30.7549 5.8251 30.7549C5.26748 30.7549 4.81543 31.2175 4.81543 31.7881C4.81543 32.3586 5.26748 32.8212 5.8251 32.8212Z" fill="#999999"/>
<path d="M4.81543 14.702C4.81543 15.2583 5.28143 15.7351 5.8251 15.7351C6.36877 15.7351 6.83478 15.2583 6.83478 14.702C6.83478 14.1457 6.36877 13.6689 5.8251 13.6689C5.28143 13.6689 4.81543 14.1457 4.81543 14.702Z" fill="#999999"/>
<path d="M5.35904 51.5762L5.82504 51.1788L6.29104 51.5762C7.99972 52.9272 10.0191 55.0729 11.3394 56.9007L11.7277 57.3775L11.3394 57.8543C10.0967 59.6027 7.99972 61.8278 6.29104 63.1788L5.82504 63.5762L5.35904 63.1788C3.65036 61.8278 1.63101 59.6821 0.310669 57.8543L0 57.3775L0.388336 56.9007C1.63101 55.0729 3.65036 52.9272 5.35904 51.5762ZM5.82504 53.3245C4.5047 54.4371 3.02902 56.0265 2.01935 57.3775C3.02902 58.7285 4.58237 60.3179 5.82504 61.4305C7.14538 60.3179 8.62106 58.7285 9.63073 57.3775C8.62106 56.0265 7.14538 54.4371 5.82504 53.3245Z" fill="#999999"/>
<path d="M5.35904 34.4901L5.82504 34.1722L6.29104 34.5695C7.99972 35.9205 10.0191 38.0662 11.3394 39.894L11.7277 40.3709L11.3394 40.8477C10.0967 42.596 7.99972 44.8212 6.29104 46.1722L5.82504 46.5695L5.35904 46.0927C3.65036 44.7417 1.63101 42.596 0.310669 40.7682L0 40.2914L0.388336 39.8146C1.63101 38.0662 3.65036 35.8411 5.35904 34.4901ZM5.82504 36.3179C4.58237 37.4305 3.10669 38.9404 2.01935 40.2914C3.02902 41.6424 4.58237 43.2318 5.82504 44.3444C7.14538 43.2318 8.62106 41.6424 9.63073 40.2914C8.62106 38.9404 7.14538 37.4305 5.82504 36.3179Z" fill="#E88852"/>
<path d="M5.35904 17.4834L5.82504 17.0861L6.36871 17.4834C8.07739 18.8344 10.0967 20.9801 11.4171 22.8079L11.8054 23.2847L11.4171 23.7616C10.1744 25.5099 8.07739 27.7351 6.36871 29.0861L5.82504 29.4039L5.35904 29.0066C3.65036 27.6556 1.63101 25.5099 0.310669 23.6821L0 23.2847L0.388336 22.8079C1.63101 20.9801 3.65036 18.7549 5.35904 17.4834ZM5.82504 19.2318C4.5047 20.3443 3.02902 21.9337 2.01935 23.2847C3.10669 24.6357 4.58237 26.2251 5.82504 27.2582C7.14538 26.1457 8.62106 24.5563 9.63073 23.2053C8.62106 21.8543 7.14538 20.3443 5.82504 19.2318Z" fill="#999999"/>
<path d="M5.35904 0.397351L5.82504 0L6.29104 0.397351C7.99972 1.74834 10.0191 3.89404 11.3394 5.72185L11.7277 6.19868L11.3394 6.6755C10.0967 8.42384 7.99972 10.649 6.29104 12L5.82504 12.3974L5.35904 12C3.65036 10.649 1.63101 8.50331 0.310669 6.6755L0 6.19868L0.388336 5.72185C1.63101 3.89404 3.65036 1.74834 5.35904 0.397351ZM5.82504 2.1457C4.58237 3.25828 3.10669 4.84768 2.01935 6.19868C3.02902 7.54967 4.58237 9.13907 5.82504 10.2517C7.14538 9.13907 8.62106 7.54967 9.63073 6.19868C8.62106 4.84768 7.14538 3.25828 5.82504 2.1457Z" fill="#E88852"/>
</svg>
