<svg viewBox="0 0 46 46" fill="none" xmlns="http://www.w3.org/2000/svg">
<path d="M25.3591 0.806725C13.3722 0.806725 0 15.2358 0 26.1801C0 37.1531 11.6254 44.0077 23.6122 44.0077C35.5991 44.0077 45.1765 37.5563 45.1765 26.5833C45.1765 15.6391 37.3459 0.806725 25.3591 0.806725ZM36.5628 31.3066L32.4668 31.3642C32.4668 31.3642 31.5934 31.537 30.4188 30.7594C28.8828 29.7514 27.4372 27.1305 26.3228 27.4761C25.1784 27.8217 25.2085 30.1834 25.2085 30.1834C25.2085 30.1834 25.2085 30.673 24.9675 30.961C24.6965 31.249 24.1242 31.3066 24.1242 31.3066H22.2871C22.2871 31.3066 18.2212 31.537 14.6673 27.9945C10.752 24.1064 7.31859 16.4167 7.31859 16.4167C7.31859 16.4167 7.10776 15.9271 7.34871 15.6679C7.58965 15.3798 8.25223 15.3798 8.25223 15.3798L12.6494 15.351C12.6494 15.351 13.0711 15.4086 13.3722 15.6391C13.6132 15.8119 13.7638 16.1287 13.7638 16.1287C13.7638 16.1287 14.4866 17.8567 15.4202 19.4119C17.2574 22.436 18.1007 23.0984 18.7332 22.7816C19.6367 22.3208 19.3656 18.4903 19.3656 18.4903C19.3656 18.4903 19.3958 17.1079 18.9139 16.5031C18.5525 16.0135 17.8598 15.8983 17.5586 15.8407C17.3176 15.8119 17.7092 15.2646 18.2513 15.0054C19.0344 14.631 20.4499 14.6022 22.0762 14.631C23.3713 14.631 23.7327 14.7174 24.2447 14.8326C25.7506 15.1782 25.2386 16.5319 25.2386 19.7575C25.2386 20.7944 25.0278 22.2632 25.8108 22.724C26.1421 22.9256 26.9854 22.7528 29.0334 19.4119C29.9972 17.8279 30.7501 15.9559 30.7501 15.9559C30.7501 15.9559 30.9007 15.6391 31.1718 15.495C31.4127 15.351 31.7741 15.3798 31.7741 15.3798L36.3821 15.351C36.3821 15.351 37.7675 15.207 38.0085 15.7831C38.2494 16.4167 37.4965 17.8855 35.5991 20.276C32.4969 24.2216 32.1656 23.8472 34.7256 26.1513C37.1953 28.3401 37.7073 29.4058 37.7675 29.521C38.7012 31.1626 36.5628 31.3066 36.5628 31.3066Z" fill="#C3C3C3"/>
</svg>
