<svg width="187" height="40" viewBox="0 0 187 40" fill="none" xmlns="http://www.w3.org/2000/svg">
<g clip-path="url(#clip0)">
<path d="M33.3722 7.72983C32.5709 5.87291 30.9696 4.46334 29.0209 3.88967C27.6976 3.56444 26.3344 3.4233 24.9575 3.4706L9.46127 3.47036C8.09811 3.4233 6.73497 3.56444 5.42896 3.88501C3.45821 4.46473 1.85389 5.87977 1.06512 7.71571C0.556155 9.21458 0.332167 10.7928 0.404745 12.3886L0.40435 27.6285C0.332159 29.2072 0.556147 30.7854 1.05451 32.2566C1.8539 34.1202 3.45822 35.5352 5.41169 36.1103C6.73497 36.4355 8.09811 36.5767 9.47501 36.5294L24.9712 36.5296C26.3344 36.5767 27.6975 36.4355 29.0035 36.115C30.9743 35.5352 32.5786 34.1202 33.3674 32.2843C33.8763 30.7854 34.1003 29.2072 34.0277 27.6113L34.0281 12.3714C34.1001 10.7977 33.8778 9.22449 33.3722 7.72983Z" fill="white" stroke="#E5E5E5"/>
<path d="M16.9112 33.0445C22.7878 33.0445 27.5518 28.3675 27.5518 22.598C27.5518 16.8285 22.7878 12.1514 16.9112 12.1514C11.0345 12.1514 6.27051 16.8285 6.27051 22.598C6.27051 28.3675 11.0345 33.0445 16.9112 33.0445Z" fill="#FFCC00"/>
<path d="M22.2393 11.9497L22.2394 21.7226L22.2159 21.7303C22.2159 21.7344 22.2159 21.7386 22.2159 21.7428C22.2159 22.6987 22.1453 23.5903 22.0135 24.0453C21.3794 26.2339 19.3281 27.8213 16.8956 27.8213C13.9572 27.8213 11.6064 25.4904 11.6064 22.6057C11.6064 19.7209 13.9572 17.39 16.8956 17.39C18.2801 17.39 19.541 17.9092 20.4875 18.7601C20.7967 19.0381 21.0724 19.3515 21.3078 19.6937C21.2425 19.3874 21.1782 19.002 21.1782 18.6726V11.0986V6.92307L28.1031 9.00625V13.724L22.2393 11.9497Z" fill="#FF3333"/>
<path fill-rule="evenodd" clip-rule="evenodd" d="M52.2752 22.3385H50.2718L46.4529 30.7692H43.667L47.8615 21.7538C45.8895 20.7692 44.5748 18.9846 44.5748 15.6923C44.5748 11.0769 47.5485 8.76923 51.0857 8.76923H54.6855V30.7692H52.2752V22.3385ZM52.2752 20.3692V10.7692H50.9918C49.051 10.7692 47.1729 12.0308 47.1729 15.6923C47.1729 19.2308 48.8945 20.3692 50.9918 20.3692H52.2752ZM78.851 28.8V33.8154H76.6599V30.7692H69.8985V33.8154H67.7073V28.8H68.6777C70.1176 25.5077 70.2741 20.7077 70.2741 16.5846V15.2615H77.5989V28.8H78.851ZM89.4626 29.7231C88.4609 30.4923 87.1462 30.9846 85.5811 30.9846C82.3256 30.9846 80.3223 28.4308 80.3223 23.6615C80.3223 18.6769 81.7309 15.0461 85.0802 15.0461C87.7097 15.0461 89.4313 16.9846 89.4313 22.2461V23.5692H82.8578C82.8578 27.0769 83.8594 28.9231 85.8002 28.9231C87.1775 28.9231 88.2731 28.3077 88.8991 27.8769L89.4626 29.7231ZM63.8884 15.2615H66.2987V30.7692H63.8884V23.8154H60.2573V30.7692H57.8157V15.2615H60.2573V21.8461H63.8884V15.2615ZM98.5403 30.7692L94.3771 23.0461V30.7692H91.9355V15.2615H94.3771V22.4308L98.1647 15.2615H100.638L96.7248 22.5538L101.201 30.7692H98.5403ZM106.929 30.9846C103.549 30.9846 101.514 28.3077 101.514 23.0154C101.514 18.1538 103.424 15.0461 107.117 15.0461C108.526 15.0461 109.34 15.4154 110.028 15.8461L109.684 18.1231C109.027 17.5692 108.088 17.0461 107.086 17.0461C105.333 17.0461 104.081 18.9846 104.081 22.8923C104.081 26.7692 105.02 28.9846 106.992 28.9846C108.182 28.9846 109.089 28.5231 109.653 28.0308L110.216 29.8154C109.371 30.5231 108.369 30.9846 106.929 30.9846ZM75.1886 28.8V17.2H72.4653V17.4769C72.4653 20.7385 72.3088 25.5077 70.9941 28.8H75.1886ZM85.0802 17.0154C83.5777 17.0154 83.0456 18.8308 82.8891 21.6H86.9271C86.9271 18.9538 86.4889 17.0154 85.0802 17.0154ZM119.169 11.2308C119.169 12.4308 119.137 14.2154 119.075 15.7231L118.417 30.7692H117.134L118.104 8.76923H119.826L123.175 22.3385C123.457 23.4154 123.614 24.4615 123.708 25.3846H123.77C123.864 24.4615 124.052 23.4154 124.334 22.3385L127.777 8.76923H129.53L130.5 30.7692H128.998L128.34 15.6C128.246 13.8769 128.278 12.5538 128.278 11.2H128.184C127.996 12.5846 127.777 13.8769 127.433 15.1692L124.302 27.3231H123.082L119.983 15.1692C119.67 13.9692 119.419 12.7385 119.263 11.2308H119.169ZM134.1 35.6923C133.756 35.6923 133.505 35.6615 133.286 35.6308L133.13 34.2769C133.38 34.3385 133.693 34.4 134.1 34.4C135.164 34.4 135.916 33.3846 136.385 31.6615L136.51 31.2L132.597 15.2615H134.069L136.573 25.3846C136.855 26.5538 137.074 27.6923 137.23 28.8923H137.324C137.543 27.6615 137.794 26.5231 138.075 25.3846L140.517 15.2615H141.832L137.794 31.5692C137.262 33.6615 136.322 35.6923 134.1 35.6923ZM146.809 31.0769C144.273 31.0769 143.053 29.3538 143.053 29.3538L143.553 28.1538C143.553 28.1538 144.618 29.8154 146.778 29.8154C148.405 29.8154 149.72 28.6769 149.72 26.4308C149.72 24.4923 148.75 23.1692 146.402 23.1692H145.087V22H146.245C148.061 22 149.344 20.9231 149.344 18.8C149.344 17.2308 148.499 16.2154 146.965 16.2154C145.525 16.2154 144.492 17.0154 143.804 17.9692L143.428 16.5846C144.117 15.6923 145.275 14.9538 146.965 14.9538C149.438 14.9538 150.753 16.4923 150.753 18.7692C150.753 20.2769 150.127 21.6615 148.405 22.4923C150.377 23.2 151.222 24.7077 151.222 26.4C151.222 29.4154 149.219 31.0769 146.809 31.0769ZM153.821 30.7692V15.2615H155.292V21.0154H156.45C159.455 21.0154 161.396 22.6154 161.396 25.8461C161.396 29.1385 159.33 30.7692 156.356 30.7692H153.821ZM164.526 15.2615V30.7692H163.086V15.2615H164.526ZM156.387 22.1538H155.292V29.6308H156.231C158.453 29.6308 159.956 28.5538 159.956 25.8769C159.956 23.2615 158.641 22.1538 156.387 22.1538ZM169.503 22.7385V30.7692H168.032V15.2615H169.503V22.5538L174.793 15.2615H176.233L171.037 22.4615L176.609 30.7692H174.981L169.503 22.7385ZM181.492 29.9077C182.963 29.9077 183.996 28.5231 184.56 26.8615V22.5846H182.869C180.271 22.5846 179.019 23.7538 179.019 26.4615C179.019 28.6461 179.99 29.9077 181.492 29.9077ZM184.998 30.7692C184.873 30.3692 184.716 29.7846 184.622 28.6769C183.871 30.1538 182.744 31.0769 181.179 31.0769C179.05 31.0769 177.579 29.4154 177.579 26.5846C177.579 23.2615 179.426 21.5385 182.838 21.5385H184.56V19.6C184.56 17.2308 183.652 16.2154 181.93 16.2154C180.584 16.2154 179.363 16.8308 178.612 17.9077L178.205 16.5231C178.831 15.7231 180.146 14.9538 181.93 14.9538C184.528 14.9538 186 16.3692 186 19.4461V27.9077C186 28.9846 186.156 30.1846 186.344 30.7692H184.998Z" fill="#222222"/>
</g>
<defs>
<clipPath id="clip0">
<rect width="186.25" height="40" fill="white"/>
</clipPath>
</defs>
</svg>
