<svg viewBox="0 0 47 46" fill="none" xmlns="http://www.w3.org/2000/svg">
<path fill-rule="evenodd" clip-rule="evenodd" d="M0.940918 27.0036C0.940918 16.0594 14.3132 1.63026 26.3 1.63026C38.2868 1.63026 46.1174 16.4626 46.1174 27.4068C46.1174 38.3799 36.54 44.8312 24.5532 44.8312C12.5663 44.8312 0.940918 37.9767 0.940918 27.0036ZM34.9136 32.9365C36.4195 32.5333 37.5941 31.4389 37.9856 29.9989C38.5277 27.9828 38.4976 24.1812 38.4675 23.8355C38.4675 23.8178 38.4677 23.7887 38.4679 23.7494C38.4723 23.0881 38.4956 19.5175 37.9555 17.6146C37.564 16.2034 36.3894 15.0802 34.9136 14.7057C32.8054 14.1297 25.276 14.0721 24.4327 14.0721H24.4026C23.5292 14.0721 16.0299 14.1585 13.9216 14.6769C12.476 15.0514 11.2713 16.2034 10.8797 17.6146C10.3573 19.5574 10.3663 23.2118 10.3677 23.7584C10.3677 23.779 10.3677 23.7952 10.3677 23.8067C10.3677 23.8183 10.3677 23.8345 10.3677 23.8551C10.3663 24.4017 10.3573 28.0551 10.8797 29.9701C11.3014 31.4101 12.476 32.5333 13.9517 32.9077C16.0901 33.4838 23.5894 33.5414 24.4327 33.5414C25.3061 33.5414 32.8054 33.455 34.9136 32.9365ZM34.3415 16.7506C35.0644 16.9234 35.6366 17.4994 35.8474 18.1906C36.2691 19.6594 36.3293 22.7699 36.2992 23.8643V23.8931C36.2992 24.9299 36.2389 28.0116 35.8474 29.4804C35.6366 30.1716 35.0644 30.7188 34.3415 30.9204C32.8055 31.2948 26.6615 31.41 24.4328 31.4388C22.2041 31.4388 16.0902 31.2948 14.5241 30.8916C13.8013 30.69 13.229 30.1428 13.0182 29.4516C12.5966 28.0116 12.5665 24.9299 12.5665 23.8643V23.8355L12.5664 23.8304C12.5656 23.6717 12.5449 19.9446 13.0182 18.1906C13.1989 17.4706 13.8013 16.9234 14.5241 16.7218C16.0902 16.3474 22.2041 16.2322 24.4328 16.2034C26.6615 16.2034 32.7754 16.3474 34.3415 16.7506ZM21.6319 19.5442V28.0692L29.3119 23.8067L21.6319 19.5442Z" fill="#C3C3C3"/>
</svg>
