<svg width="48" height="48" viewBox="0 0 48 48" fill="none" xmlns="http://www.w3.org/2000/svg">
<path d="M21.0459 0C33.8028 0 48 16.0098 48 28.2007C48 40.3917 35.6546 48 22.8977 48C10.1408 48 0 40.8323 0 28.6707C0 16.5092 8.28904 0 21.0459 0ZM16.872 34.869C16.3135 35.4272 16.3135 36.3672 16.872 36.9253C17.4305 37.4835 18.3711 37.4835 18.9296 36.9253L30.8047 25.0869C31.3631 24.5288 31.3631 23.5887 30.8047 23.0306L18.959 11.1922C18.4005 10.634 17.4599 10.634 16.9014 11.1922C16.3429 11.7503 16.3429 12.6903 16.9014 13.2485L27.6889 24.0588L16.872 34.869Z" fill="#E1E1E1"/>
</svg>
