<svg width="146" height="24" viewBox="0 0 146 24" fill="none" 
  xmlns="http://www.w3.org/2000/svg">
  <path d="M0 2.50506C0 2.18183 0.161616 1.8586 0.484848 1.69698C0.808081 1.45456 1.21212 1.37375 1.61616 1.37375C2.0202 1.37375 2.42424 1.45456 2.82828 1.61617C3.23232 1.77779 3.47475 2.02021 3.55556 2.34345C3.55556 4.68688 3.63636 7.11112 3.79798 9.45456C3.9596 11.798 4.12121 14.2222 4.20202 16.5657C5.73737 14.2222 7.27273 11.8788 8.80808 9.53537C10.3434 7.19193 11.8788 4.8485 13.4949 2.50506C13.6566 2.26264 13.899 2.10102 14.303 1.93941C14.6263 1.77779 15.0303 1.69698 15.4343 1.69698C15.7576 1.69698 16.1616 1.77779 16.4848 1.93941C16.8081 2.10102 17.0505 2.34345 17.1313 2.66668C17.2121 5.899 17.2929 9.05052 17.3737 12.202C17.4545 15.3535 17.5354 18.5051 17.5354 21.6566C17.4545 21.9798 17.1313 22.2222 16.8081 22.3839C16.4848 22.5455 16 22.6263 15.596 22.6263C15.1919 22.6263 14.7879 22.5455 14.4646 22.3839C14.1414 22.2222 13.9798 21.899 13.9798 21.5758C13.9798 19.3131 13.9798 17.0505 13.899 14.8687C13.8182 12.6869 13.8182 10.4243 13.7374 8.16163C12.202 10.5051 10.5859 12.8485 9.0505 15.2727C7.51515 17.6162 5.9798 20.0404 4.36364 22.3839C4.12121 22.5455 3.87879 22.7071 3.47475 22.7879C3.07071 22.8687 2.74747 22.9495 2.34343 22.9495C1.93939 22.9495 1.61616 22.8687 1.37374 22.7071C0.969697 22.4647 0.808081 22.2222 0.808081 21.899H0.646465C0.646465 21.899 0.646465 21.8182 0.727273 21.7374C0.808081 18.5859 0.646465 15.3535 0.40404 12.1212C0.161616 8.96971 0 5.73739 0 2.50506Z" fill="black"/>
  <path d="M22.4646 0.484848C22.5454 0.242424 22.7878 0.161616 23.2727 0.0808081C23.6767 0 24.2424 0 24.7272 0H26.3434C26.9898 0 27.7979 0 28.6868 0.0808081C29.5757 0.161616 30.5454 0.242424 31.5151 0.323232C32.4848 0.484848 33.4545 0.646465 34.4242 0.888889C35.3939 1.13131 36.2828 1.53535 37.01 1.93939C37.8181 2.42424 38.3838 2.90909 38.8686 3.55556C39.3535 4.20202 39.5959 5.0101 39.5959 5.89899C39.5959 6.54545 39.3535 7.11111 38.8686 7.67677C38.3838 8.16162 37.8181 8.64646 37.1716 9.0505C36.5252 9.45454 35.7979 9.69697 34.9898 9.93939C34.1817 10.1818 33.5353 10.3434 32.8888 10.505C33.8585 10.6667 34.7474 10.9091 35.6363 11.1515C36.5252 11.4747 37.3333 11.798 38.0605 12.2828C38.7878 12.7677 39.3535 13.3333 39.8383 13.899C40.3232 14.5455 40.4848 15.2727 40.4848 16.0808C40.4848 16.9697 40.3232 17.697 39.9191 18.3434C39.5151 18.9899 39.0302 19.4747 38.3838 19.9596C37.7373 20.3636 36.9292 20.7677 36.0403 21.0101C35.1514 21.2525 34.1817 21.4949 33.1312 21.5758C32.5656 21.6566 31.9191 21.7374 31.3535 21.7374C30.7878 21.7374 30.1413 21.8182 29.5757 21.8182C29.01 21.8182 28.202 21.8182 27.3939 21.7374C26.505 21.6566 25.6969 21.5758 24.808 21.4949C23.9999 21.4141 23.2727 21.2525 22.6262 21.0101C22.0605 20.8485 21.7373 20.5253 21.7373 20.202C21.7373 18.101 21.7373 15.9192 21.8181 13.8182C21.8989 11.7172 21.8989 9.61616 21.8989 7.51515C21.8989 6.38384 21.8989 5.17172 21.9797 3.87879C22.2222 2.82828 22.303 1.61616 22.4646 0.484848ZM29.8989 20.4444C32.404 20.4444 34.2626 20.0404 35.3939 19.2323C36.606 18.4242 37.1716 17.5354 37.1716 16.4848C37.1716 15.9192 36.9292 15.2727 36.5252 14.7071C36.1211 14.1414 35.5555 13.6566 34.7474 13.1717C33.9393 12.7677 32.9696 12.3636 31.8383 12.1212C30.707 11.8788 29.4141 11.7172 27.8787 11.7172C27.4747 11.7172 26.9898 11.7172 26.5858 11.798C26.1818 11.8788 25.6969 11.8788 25.1312 11.9596V19.9596C25.9393 20.0404 26.6666 20.202 27.4747 20.2828C28.3636 20.3636 29.0908 20.4444 29.8989 20.4444ZM25.3737 9.69697C25.6969 9.69697 25.9393 9.77778 26.2626 9.77778C26.5858 9.77778 26.8282 9.77778 27.0706 9.77778C29.9797 9.77778 32.2424 9.37374 33.6969 8.56566C35.1514 7.75758 35.9595 6.78788 35.9595 5.73737C35.9595 5.25252 35.7979 4.76768 35.3939 4.28283C35.0706 3.79798 34.505 3.39394 33.7777 2.9899C33.0504 2.58586 32.1615 2.26263 31.111 2.10101C30.0605 1.77778 28.8484 1.61616 27.3939 1.61616C27.0706 1.61616 26.7474 1.61616 26.4242 1.61616C26.1009 1.61616 25.7777 1.61616 25.4545 1.69697C25.5353 2.0202 25.5353 2.42424 25.5353 2.74747C25.5353 3.07071 25.5353 3.39394 25.5353 3.79798C25.5353 4.84848 25.5353 5.81818 25.4545 6.78788C25.3737 7.75757 25.3737 8.72727 25.3737 9.69697Z" fill="black"/>
  <path d="M46.7072 4.52525C46.5456 4.60606 46.3031 4.68687 45.9799 4.68687C45.6567 4.76768 45.3334 4.76768 45.0102 4.76768C44.6062 4.76768 44.2021 4.68687 43.8789 4.60606C43.5557 4.52525 43.394 4.36364 43.394 4.12121C43.394 4.0404 43.4749 3.79798 43.6365 3.55556C43.7981 3.31313 44.0405 2.9899 44.2829 2.58586C44.5254 2.18182 44.9294 1.77778 45.3334 1.37374C45.8183 0.969697 46.3839 0.646465 47.1112 0.40404C48.0001 0.161616 48.9698 0 50.1011 0C51.6365 0 52.8486 0.323232 53.8183 1.05051C54.7072 1.77778 55.4344 2.74747 56.0001 3.87879C56.4849 5.0101 56.889 6.30303 57.0506 7.75758C57.2122 9.21212 57.293 10.5859 57.293 11.9596C57.293 12.9293 57.293 13.899 57.293 14.7879C57.293 15.6768 57.2122 16.5657 57.2122 17.4545C57.1314 18.3434 57.0506 19.2323 56.889 20.1212C56.7274 21.0101 56.5658 21.9798 56.2425 23.0303C56.1617 23.3535 55.9193 23.596 55.5152 23.7576C55.1112 23.9192 54.7072 24 54.3031 24C53.8991 24 53.495 23.9192 53.1718 23.7576C52.8486 23.596 52.687 23.2727 52.687 22.9495C52.7678 22.7071 52.7678 22.5455 52.8486 22.4646C52.9294 22.3838 52.9294 22.303 52.9294 22.2222C52.9294 22.1414 53.0102 22.0606 53.0102 21.9798C53.0102 21.899 53.091 21.6566 53.1718 21.4141C52.6062 21.6566 52.0405 21.8182 51.5557 21.899C50.99 21.9798 50.4243 22.0606 49.8587 22.0606C49.1314 22.0606 48.4849 21.9798 47.8385 21.7374C47.192 21.4949 46.6264 21.1717 46.0607 20.6869C45.5759 20.202 45.1718 19.5556 44.8486 18.7475C44.5254 17.9394 44.3637 17.0505 44.3637 15.9192C44.3637 13.899 45.0102 12.3636 46.2223 11.3131C47.4344 10.2626 49.293 9.69697 51.7173 9.69697C52.0405 9.69697 52.3637 9.69697 52.7678 9.77778C53.091 9.77778 53.495 9.85859 53.8183 9.93939C53.7375 9.0505 53.6567 8.16162 53.5759 7.19192C53.495 6.22222 53.3334 5.41414 53.091 4.60606C52.8486 3.79798 52.5254 3.07071 52.1213 2.50505C51.394 1.93939 50.8284 1.61616 50.1011 1.45455C49.5355 1.45455 48.9698 1.53535 48.6466 1.69697C48.2425 1.85859 48.0001 2.0202 47.7577 2.34343C47.5153 2.58586 47.3536 2.90909 47.192 3.31313C47.0304 3.63636 46.8688 4.0404 46.7072 4.52525ZM53.091 12.7677C52.8486 12.2828 52.5253 11.8788 52.2829 11.7172C51.9597 11.5556 51.6365 11.3939 51.3132 11.3939C50.586 11.3939 50.0203 11.5556 49.6163 11.8788C49.2122 12.202 48.8082 12.5253 48.5658 13.0101C48.3233 13.4949 48.1617 13.9798 48.0809 14.5455C48.0001 15.1111 47.9193 15.596 47.9193 16.0808C47.9193 16.3232 47.9193 16.6465 48.0001 17.1313C48.0001 17.6162 48.0809 18.0202 48.2425 18.5051C48.4041 18.9899 48.6466 19.3939 48.889 19.7172C49.2122 20.0404 49.5355 20.2828 50.1011 20.2828C50.6668 20.2828 51.1516 20.1212 51.5557 19.798C51.9597 19.4747 52.3637 19.0707 52.6062 18.5051C52.9294 18.0202 53.091 17.4545 53.2526 16.8081C53.4142 16.2424 53.495 15.596 53.495 15.0303C53.495 14.6263 53.495 14.2222 53.4142 13.8182C53.2526 13.5758 53.1718 13.1717 53.091 12.7677Z" fill="black"/>
  <path d="M72.5656 13.4142C71.8383 13.4142 71.2727 13.3333 70.8686 13.1717C70.4646 13.0101 70.2222 12.7677 70.2222 12.5253C70.2222 12.3637 70.303 12.202 70.5454 12.0404C70.7878 11.8788 71.1919 11.798 71.8383 11.7172L73.8585 11.5556C73.7777 10.2626 73.6969 9.29294 73.6161 8.56567C73.5353 7.8384 73.5353 7.19193 73.4545 6.62628C73.3737 6.06062 73.3737 5.41416 73.2929 4.68688C73.2121 3.95961 73.2121 2.98991 73.1313 1.69698C73.1313 1.37375 73.2929 1.05052 73.6161 0.888904C73.9393 0.727288 74.3434 0.646479 74.7474 0.646479C75.1515 0.646479 75.5555 0.727288 75.9595 0.888904C76.3636 1.05052 76.606 1.29294 76.6868 1.61618C76.7676 2.90911 76.7676 3.8788 76.8484 4.60608C76.9292 5.33335 77.01 5.97981 77.0909 6.54547C77.1717 7.11113 77.2525 7.75759 77.3333 8.48486C77.4141 9.21214 77.4949 10.1818 77.5757 11.394C78.6262 11.394 79.5959 11.3131 80.3232 11.3131C81.0504 11.3131 81.6969 11.3131 82.2626 11.2323C82.8282 11.2323 83.3939 11.2323 83.9595 11.1515C84.5252 11.1515 85.1717 11.0707 85.9797 11.0707C85.8989 9.77779 85.8989 8.80809 85.8989 8.16163C85.8989 7.51517 85.8989 6.8687 85.8181 6.30305C85.8181 5.73739 85.7373 5.09092 85.7373 4.44446C85.7373 3.71719 85.7373 2.74749 85.7373 1.53537C85.7373 1.21214 85.8989 0.888904 86.2222 0.727287C86.5454 0.565671 86.9494 0.484863 87.3535 0.484863C87.7575 0.484863 88.1616 0.565671 88.5656 0.727287C88.9696 0.888904 89.2121 1.13133 89.2929 1.45456C89.2929 3.23234 89.2929 4.68688 89.2929 5.899C89.2929 7.11113 89.2929 8.16163 89.2929 9.05052C89.2929 9.93941 89.2929 10.8283 89.3737 11.5556C89.3737 12.2828 89.3737 13.1717 89.4545 14.0606C89.4545 14.9495 89.4545 16 89.4545 17.2121C89.4545 18.4243 89.4545 19.8788 89.4545 21.6566C89.3737 21.9798 89.0504 22.2222 88.7272 22.3839C88.3232 22.5455 87.9191 22.6263 87.5151 22.6263C87.1111 22.6263 86.707 22.5455 86.3838 22.3839C86.0605 22.2222 85.8989 21.899 85.8989 21.5758C85.8989 20.3637 85.8989 19.4748 85.9797 18.9091C85.9797 18.3434 86.0605 17.7778 86.0605 17.3738C86.0605 16.8889 86.1414 16.4041 86.1414 15.7576C86.1414 15.1111 86.1414 14.303 86.0605 13.0909C85.3333 13.0909 84.6868 13.0909 84.1212 13.1717C83.5555 13.1717 82.9898 13.2525 82.4242 13.2525C81.8585 13.2525 81.2121 13.2525 80.4848 13.3333C79.7575 13.3333 78.8686 13.4142 77.7373 13.4142C77.8181 14.6263 77.8989 15.5152 77.8989 16.0808C77.8989 16.6465 77.8989 17.2121 77.9797 17.697C77.9797 18.1818 77.9797 18.6667 78.0605 19.2323C78.0605 19.798 78.1414 20.6869 78.2222 21.899C78.1414 22.2222 77.8989 22.4647 77.5757 22.6263C77.2525 22.7879 76.9292 22.8687 76.5252 22.8687C76.1212 22.8687 75.7171 22.7879 75.3939 22.6263C75.0707 22.4647 74.7474 22.303 74.5858 22.0606C74.3434 20.6061 74.3434 19.7172 74.3434 19.1515C74.3434 18.5859 74.2626 18.0202 74.2626 17.6162C74.2626 17.1313 74.2626 16.6465 74.1818 16.0808C74.1818 15.5152 74.101 14.6263 74.0201 13.4142C73.7777 13.4142 73.5353 13.4142 73.3737 13.4142C73.1313 13.4142 72.808 13.4142 72.5656 13.4142Z" fill="black"/>
  <path d="M92.8486 13.7374C92.8486 12.4444 93.0102 11.2323 93.4143 10.101C93.8183 8.96968 94.3032 7.99999 95.0305 7.19191C95.6769 6.38383 96.485 5.73736 97.3739 5.25251C98.2628 4.76766 99.1517 4.60605 100.121 4.60605C101.01 4.60605 101.899 4.76766 102.707 5.17171C103.515 5.57575 104.404 6.1414 105.212 7.03029C105.697 7.59595 106.02 8.24241 106.182 9.05049C106.263 9.85857 106.344 10.5858 106.344 11.3939C106.344 12.4444 106.263 13.4949 106.02 14.6263C105.778 15.6768 105.536 16.7273 105.212 17.5353C104.727 18.9899 104 20.1212 103.111 20.8485C102.222 21.5757 101.091 21.9798 99.6365 21.9798C98.5052 21.9798 97.5355 21.7374 96.7274 21.2525C95.9193 20.7677 95.1921 20.1212 94.6264 19.3131C94.0608 18.505 93.6567 17.6161 93.3335 16.6465C93.0102 15.6768 92.8486 14.7071 92.8486 13.7374ZM102.788 11.8788C102.788 9.93938 102.546 8.56564 102.061 7.67676C101.576 6.78787 101.01 6.30302 100.364 6.30302C99.9597 6.30302 99.4749 6.46463 99.0709 6.86867C98.586 7.19191 98.182 7.75756 97.8587 8.48484C97.5355 9.21211 97.2123 10.0202 96.9698 10.9899C96.7274 11.9596 96.6466 13.0909 96.6466 14.303C96.6466 14.9495 96.7274 15.5959 96.8082 16.3232C96.889 17.0505 97.1315 17.6161 97.3739 18.2626C97.6163 18.8283 97.9395 19.3131 98.3436 19.7172C98.7476 20.1212 99.2325 20.2828 99.8789 20.2828C100.445 20.1212 100.849 19.7172 101.253 19.1515C101.576 18.5858 101.899 17.9394 102.142 17.1313C102.384 16.3232 102.546 15.5151 102.626 14.7071C102.707 13.899 102.788 13.0909 102.788 12.3636V11.8788Z" fill="black"/>
  <path d="M110.545 0.484848C110.626 0.242424 110.869 0.161616 111.353 0.0808081C111.838 0 112.323 0 112.889 0H114.505C115.151 0 115.96 0 116.848 0.0808081C117.737 0.161616 118.707 0.242424 119.677 0.323232C120.646 0.484848 121.616 0.646465 122.586 0.888889C123.555 1.13131 124.444 1.53535 125.172 1.93939C125.98 2.42424 126.545 2.90909 127.03 3.55556C127.515 4.20202 127.758 5.0101 127.758 5.89899C127.758 6.54545 127.515 7.11111 127.03 7.67677C126.545 8.16162 125.98 8.64646 125.333 9.0505C124.687 9.45454 123.96 9.69697 123.151 9.93939C122.343 10.1818 121.697 10.3434 121.05 10.505C122.02 10.6667 122.909 10.9091 123.798 11.1515C124.687 11.4747 125.495 11.798 126.222 12.2828C126.949 12.7677 127.515 13.3333 128 13.899C128.485 14.5455 128.646 15.2727 128.646 16.0808C128.646 16.9697 128.485 17.697 128.081 18.3434C127.677 18.9899 127.192 19.4747 126.545 19.9596C125.899 20.3636 125.091 20.7677 124.202 21.0101C123.313 21.2525 122.343 21.4949 121.293 21.5758C120.727 21.6566 120.081 21.7374 119.515 21.7374C118.949 21.7374 118.303 21.8182 117.737 21.8182C117.172 21.8182 116.364 21.8182 115.555 21.7374C114.667 21.6566 113.859 21.5758 112.97 21.4949C112.162 21.4141 111.434 21.2525 110.788 21.0101C110.222 20.8485 109.899 20.5253 109.899 20.202C109.899 18.101 109.899 15.9192 109.98 13.8182C110.061 11.7172 110.061 9.61616 110.061 7.51515C110.061 6.38384 110.061 5.17172 110.141 3.87879C110.303 2.82828 110.384 1.61616 110.545 0.484848ZM117.98 20.4444C120.485 20.4444 122.343 20.0404 123.475 19.2323C124.687 18.4242 125.252 17.5354 125.252 16.4848C125.252 15.9192 125.01 15.2727 124.606 14.7071C124.202 14.1414 123.636 13.6566 122.828 13.1717C122.02 12.7677 121.05 12.3636 119.919 12.1212C118.788 11.8788 117.495 11.7172 115.96 11.7172C115.555 11.7172 115.071 11.7172 114.667 11.798C114.263 11.8788 113.778 11.8788 113.212 11.9596V19.9596C114.02 20.0404 114.747 20.202 115.555 20.2828C116.444 20.3636 117.252 20.4444 117.98 20.4444ZM113.454 9.69697C113.778 9.69697 114.02 9.77778 114.343 9.77778C114.667 9.77778 114.909 9.77778 115.151 9.77778C118.061 9.77778 120.323 9.37374 121.778 8.56566C123.232 7.75758 124.04 6.78788 124.04 5.73737C124.04 5.25252 123.879 4.76768 123.475 4.28283C123.151 3.79798 122.586 3.39394 121.859 2.9899C121.131 2.58586 120.242 2.26263 119.192 2.10101C118.222 1.77778 116.929 1.61616 115.555 1.61616C115.232 1.61616 114.909 1.61616 114.586 1.61616C114.263 1.61616 113.939 1.61616 113.616 1.69697C113.697 2.0202 113.697 2.42424 113.697 2.74747C113.697 3.07071 113.697 3.39394 113.697 3.79798C113.697 4.84848 113.697 5.81818 113.616 6.78788C113.535 7.75757 113.454 8.72727 113.454 9.69697Z" fill="black"/>
  <path d="M134.869 4.52525C134.707 4.60606 134.465 4.68687 134.142 4.68687C133.818 4.76768 133.495 4.76768 133.172 4.76768C132.768 4.76768 132.364 4.68687 132.041 4.60606C131.717 4.52525 131.556 4.36364 131.556 4.12121C131.556 4.0404 131.636 3.79798 131.798 3.55556C131.96 3.31313 132.202 2.9899 132.445 2.58586C132.687 2.18182 133.091 1.77778 133.495 1.37374C133.98 0.969697 134.546 0.646465 135.273 0.40404C136 0.161616 136.97 0 138.101 0C139.636 0 140.849 0.323232 141.818 1.05051C142.707 1.77778 143.434 2.74747 144 3.87879C144.485 5.0101 144.889 6.30303 145.051 7.75758C145.212 9.21212 145.293 10.5859 145.293 11.9596C145.293 12.9293 145.293 13.899 145.293 14.7879C145.293 15.6768 145.212 16.5657 145.212 17.4545C145.131 18.3434 145.051 19.2323 144.889 20.1212C144.727 21.0101 144.566 21.9798 144.243 23.0303C144.162 23.3535 143.919 23.596 143.515 23.7576C143.111 23.9192 142.707 24 142.303 24C141.899 24 141.495 23.9192 141.172 23.7576C140.849 23.596 140.687 23.2727 140.687 22.9495C140.768 22.7071 140.768 22.5455 140.849 22.4646C140.929 22.3838 140.929 22.303 140.929 22.2222C140.929 22.1414 141.01 22.0606 141.01 21.9798C141.01 21.899 141.091 21.6566 141.172 21.4141C140.606 21.6566 140.041 21.8182 139.556 21.899C138.99 21.9798 138.424 22.0606 137.859 22.0606C137.131 22.0606 136.485 21.9798 135.838 21.7374C135.192 21.4949 134.626 21.1717 134.061 20.6869C133.576 20.202 133.172 19.5556 132.849 18.7475C132.525 17.9394 132.364 17.0505 132.364 15.9192C132.364 13.899 133.01 12.3636 134.222 11.3131C135.434 10.2626 137.293 9.69697 139.717 9.69697C140.04 9.69697 140.364 9.69697 140.768 9.77778C141.091 9.77778 141.495 9.85859 141.818 9.93939C141.737 9.0505 141.657 8.16162 141.576 7.19192C141.495 6.22222 141.333 5.41414 141.091 4.60606C140.849 3.79798 140.525 3.07071 140.121 2.50505C139.717 1.93939 139.152 1.53535 138.424 1.45455C137.859 1.45455 137.293 1.53535 136.97 1.69697C136.566 1.85859 136.323 2.0202 136.081 2.34343C135.838 2.58586 135.677 2.90909 135.515 3.31313C135.192 3.63636 135.03 4.0404 134.869 4.52525ZM141.172 12.7677C140.929 12.2828 140.606 11.8788 140.364 11.7172C140.041 11.5556 139.717 11.3939 139.394 11.3939C138.667 11.3939 138.101 11.5556 137.697 11.8788C137.293 12.202 136.889 12.5253 136.647 13.0101C136.404 13.4949 136.243 13.9798 136.162 14.5455C136.081 15.1111 136 15.596 136 16.0808C136 16.3232 136 16.6465 136.081 17.1313C136.081 17.6162 136.162 18.0202 136.323 18.5051C136.485 18.9899 136.727 19.3939 136.97 19.7172C137.293 20.0404 137.616 20.2828 138.182 20.2828C138.748 20.2828 139.232 20.1212 139.636 19.798C140.041 19.4747 140.445 19.0707 140.687 18.5051C141.01 18.0202 141.172 17.4545 141.333 16.8081C141.495 16.2424 141.576 15.596 141.576 15.0303C141.576 14.6263 141.576 14.2222 141.495 13.8182C141.414 13.5758 141.333 13.1717 141.172 12.7677Z" fill="black"/>
</svg>
